<svg width="12" height="15" viewBox="0 0 12 15" fill="none" xmlns="http://www.w3.org/2000/svg">
<path d="M10 12.5C10 12.8978 9.84196 13.2794 9.56066 13.5607C9.27936 13.842 8.89782 14 8.5 14C8.10218 14 7.72064 13.842 7.43934 13.5607C7.15804 13.2794 7 12.8978 7 12.5C7 12.1022 7.15804 11.7206 7.43934 11.4393C7.72064 11.158 8.10218 11 8.5 11C8.89782 11 9.27936 11.158 9.56066 11.4393C9.84196 11.7206 10 12.1022 10 12.5ZM10 7.5C10 7.89782 9.84196 8.27936 9.56066 8.56066C9.27936 8.84196 8.89782 9 8.5 9C8.10218 9 7.72064 8.84196 7.43934 8.56066C7.15804 8.27936 7 7.89782 7 7.5C7 7.10218 7.15804 6.72064 7.43934 6.43934C7.72064 6.15804 8.10218 6 8.5 6C8.89782 6 9.27936 6.15804 9.56066 6.43934C9.84196 6.72064 10 7.10218 10 7.5ZM10 2.5C10 2.89782 9.84196 3.27936 9.56066 3.56066C9.27936 3.84196 8.89782 4 8.5 4C8.10218 4 7.72064 3.84196 7.43934 3.56066C7.15804 3.27936 7 2.89782 7 2.5C7 2.10218 7.15804 1.72064 7.43934 1.43934C7.72064 1.15804 8.10218 1 8.5 1C8.89782 1 9.27936 1.15804 9.56066 1.43934C9.84196 1.72064 10 2.10218 10 2.5Z" fill="#808080"/>
<path d="M5 12.5C5 12.8978 4.84196 13.2794 4.56066 13.5607C4.27936 13.842 3.89782 14 3.5 14C3.10218 14 2.72064 13.842 2.43934 13.5607C2.15804 13.2794 2 12.8978 2 12.5C2 12.1022 2.15804 11.7206 2.43934 11.4393C2.72064 11.158 3.10218 11 3.5 11C3.89782 11 4.27936 11.158 4.56066 11.4393C4.84196 11.7206 5 12.1022 5 12.5ZM5 7.5C5 7.89782 4.84196 8.27936 4.56066 8.56066C4.27936 8.84196 3.89782 9 3.5 9C3.10218 9 2.72064 8.84196 2.43934 8.56066C2.15804 8.27936 2 7.89782 2 7.5C2 7.10218 2.15804 6.72064 2.43934 6.43934C2.72064 6.15804 3.10218 6 3.5 6C3.89782 6 4.27936 6.15804 4.56066 6.43934C4.84196 6.72064 5 7.10218 5 7.5ZM5 2.5C5 2.89782 4.84196 3.27936 4.56066 3.56066C4.27936 3.84196 3.89782 4 3.5 4C3.10218 4 2.72064 3.84196 2.43934 3.56066C2.15804 3.27936 2 2.89782 2 2.5C2 2.10218 2.15804 1.72064 2.43934 1.43934C2.72064 1.15804 3.10218 1 3.5 1C3.89782 1 4.27936 1.15804 4.56066 1.43934C4.84196 1.72064 5 2.10218 5 2.5Z" fill="#808080"/>
</svg>
